<?xml version="1.0" encoding="iso-8859-1"?>
<!-- Generator: Adobe Illustrator 19.0.0, SVG Export Plug-In . SVG Version: 6.00 Build 0)  -->
<svg version="1.1" id="Capa_1" xmlns="http://www.w3.org/2000/svg" xmlns:xlink="http://www.w3.org/1999/xlink" x="0px" y="0px"
	 viewBox="0 0 496 496" style="enable-background:new 0 0 496 496;" xml:space="preserve">
<g>
	<path style="fill:#F0BC5E;" d="M456,96H320v56H176V96H40c-22.056,0-40,17.944-40,40v320c0,22.056,17.944,40,40,40h416
		c22.056,0,40-17.944,40-40V136C496,113.944,478.056,96,456,96z"/>
	<rect x="200" y="8" style="fill:#F0BC5E;" width="96" height="144"/>
</g>
<path d="M236.872,386.416L192,377.44v-2.104c14.8-8.592,25.824-22.928,30.048-39.952C236.808,332.544,248,319.576,248,304v-40
	c0-48.52-39.48-88-88-88s-88,39.48-88,88v40c0,15.576,11.192,28.544,25.952,31.392c4.224,17.024,15.248,31.36,30.048,39.952v2.104
	l-44.864,8.976c-20.656,4.128-37.08,19.272-42.864,39.528L29.392,464h261.216l-10.872-38.056
	C273.944,405.688,257.52,390.536,236.872,386.416z M144,381.896c5.128,1.328,10.464,2.104,16,2.104s10.872-0.776,16-2.104V384
	c0,8.824-7.176,16-16,16s-16-7.176-16-16V381.896z M224,317.776v-27.552c4.76,2.776,8,7.88,8,13.776S228.76,315,224,317.776z
	 M160,192c39.696,0,72,32.304,72,72v12.448c-4.728-2.752-10.144-4.448-16-4.448c-18.496,0-35.888-7.2-48.968-20.272L160,244.672
	l-7.024,7.048C139.888,264.8,122.496,272,104,272c-5.856,0-11.272,1.696-16,4.448V264C88,224.304,120.304,192,160,192z M88,304
	c0-5.896,3.24-11,8-13.776v27.552C91.24,315,88,309.896,88,304z M112,320v-32.376c17.816-1.648,34.48-8.776,48-20.584
	c13.52,11.8,30.184,18.936,48,20.584V320c0,26.472-21.528,48-48,48S112,346.472,112,320z M230.248,448l-6.488-25.936l-15.52,3.872
	L213.752,448H106.248l5.512-22.064l-15.52-3.872L89.752,448H50.608l5.048-17.664c4.136-14.472,15.864-25.28,30.616-28.232
	l43.312-8.664C133.64,406.464,145.664,416,160,416s26.36-9.536,30.416-22.56l43.312,8.664c14.752,2.952,26.48,13.776,30.616,28.232
	L269.392,448H230.248z"/>
<rect x="280" y="224" width="184" height="16"/>
<rect x="280" y="272" width="16" height="16"/>
<rect x="312" y="272" width="152" height="16"/>
<rect x="280" y="320" width="184" height="16"/>
<rect x="280" y="368" width="152" height="16"/>
<path d="M344,144h-16V0H168v144h-16v16h192V144z M312,144h-16v-32h-16v32h-64V16h64v80h16V16h16V144z M184,16h16v128h-16V16z"/>
<rect x="448" y="368" width="16" height="16"/>
<g>
</g>
<g>
</g>
<g>
</g>
<g>
</g>
<g>
</g>
<g>
</g>
<g>
</g>
<g>
</g>
<g>
</g>
<g>
</g>
<g>
</g>
<g>
</g>
<g>
</g>
<g>
</g>
<g>
</g>
</svg>
