<svg id="Layer_1" height="512" viewBox="0 0 128 128" width="512" xmlns="http://www.w3.org/2000/svg" data-name="Layer 1"><rect fill="#1a91e9" height="99.707" rx="3.458" width="60.184" x="33.034" y="14.146"/><path d="m33.034 21.284h60.184v81.609h-60.184z" fill="#e5ffff"/><path d="m63.126 26.338h24.933v71.5h-24.933z" fill="#b3dff8"/><path d="m63.126 78.989c-7.838-3.007-13.034-9.346-15.453-18.861a49.013 49.013 0 0 1 -1.4-12.735c8.091-2.56 14.162-5.019 16.848-6.158 2.685 1.139 8.757 3.6 16.847 6.158a48.981 48.981 0 0 1 -1.395 12.735c-2.414 9.515-7.609 15.854-15.447 18.861z" fill="#1a91e9"/><path d="m61.03 64.838a1.748 1.748 0 0 1 -1.251-.527l-4.166-4.268a1.75 1.75 0 1 1 2.5-2.445l2.916 2.987 7.107-7.257a1.75 1.75 0 1 1 2.5 2.448l-8.356 8.536a1.747 1.747 0 0 1 -1.25.526z" fill="#e5ffff"/><path d="m63.126 105.938a2.563 2.563 0 1 0 2.562 2.563 2.566 2.566 0 0 0 -2.562-2.563z" fill="#e5ffff"/><g fill="#04303e"><path d="m81.641 47.92a1.749 1.749 0 0 0 -1.141-2.2c-7.92-2.5-13.857-4.9-16.691-6.1a1.747 1.747 0 0 0 -1.368 0c-2.834 1.2-8.771 3.595-16.691 6.1a1.749 1.749 0 0 0 -1.222 1.632 50.318 50.318 0 0 0 1.449 13.2c2.565 10.098 8.123 16.848 16.523 20.071a1.753 1.753 0 0 0 1.254 0c8.4-3.222 13.956-9.973 16.521-20.064a46.111 46.111 0 0 0 .955-4.883 1.75 1.75 0 1 0 -3.466-.489 42.383 42.383 0 0 1 -.881 4.509c-2.2 8.668-6.829 14.521-13.756 17.408-6.927-2.887-11.555-8.74-13.758-17.404a47.076 47.076 0 0 1 -1.35-11.023c6.878-2.22 12.174-4.314 15.106-5.539 3.1 1.3 8.85 3.564 16.32 5.927a1.747 1.747 0 0 0 2.196-1.145z"/><path d="m68.137 53.328-7.106 7.257-2.916-2.985a1.75 1.75 0 1 0 -2.505 2.445l4.166 4.268a1.75 1.75 0 0 0 1.251.527 1.75 1.75 0 0 0 1.25-.525l8.359-8.537a1.75 1.75 0 1 0 -2.5-2.448z"/><path d="m72.875 15.9h.583a1.75 1.75 0 0 0 0-3.5h-.583a1.75 1.75 0 0 0 0 3.5z"/><path d="m33.033 80.739a1.75 1.75 0 0 0 1.75-1.75v-61.384a1.711 1.711 0 0 1 1.709-1.705h29.758a1.75 1.75 0 0 0 0-3.5h-29.758a5.215 5.215 0 0 0 -5.209 5.209v61.38a1.751 1.751 0 0 0 1.75 1.75z"/><path d="m33.033 88.417a1.75 1.75 0 0 0 1.75-1.75v-.75a1.75 1.75 0 0 0 -3.5 0v.75a1.751 1.751 0 0 0 1.75 1.75z"/><path d="m89.758 12.4h-8.466a1.75 1.75 0 0 0 0 3.5h8.466a1.711 1.711 0 0 1 1.709 1.709v1.929h-50.009a1.75 1.75 0 0 0 0 3.5h50.009v87.362a1.711 1.711 0 0 1 -1.709 1.709h-53.266a1.711 1.711 0 0 1 -1.709-1.709v-5.752h50.009a1.75 1.75 0 0 0 0-3.5h-50.009v-7.31a1.75 1.75 0 0 0 -3.5 0v16.562a5.215 5.215 0 0 0 5.209 5.209h53.266a5.215 5.215 0 0 0 5.209-5.209v-92.795a5.215 5.215 0 0 0 -5.209-5.205z"/><path d="m60.563 108.5a2.563 2.563 0 1 0 2.562-2.563 2.565 2.565 0 0 0 -2.562 2.563z"/></g></svg>