<?xml version="1.0" encoding="iso-8859-1"?>
<!-- Generator: Adobe Illustrator 19.0.0, SVG Export Plug-In . SVG Version: 6.00 Build 0)  -->
<svg version="1.1" id="Capa_1" xmlns="http://www.w3.org/2000/svg" xmlns:xlink="http://www.w3.org/1999/xlink" x="0px" y="0px"
	 viewBox="0 0 512 512" style="enable-background:new 0 0 512 512;" xml:space="preserve">
<path style="fill:#888890;" d="M467,416H45c-24.813,0-45-20.187-45-45V101c0-24.813,20.187-45,45-45h422c24.813,0,45,20.187,45,45
	v270C512,395.813,491.813,416,467,416z"/>
<path style="fill:#56535A;" d="M467,56H256v360h211c24.813,0,45-20.187,45-45V101C512,76.187,491.813,56,467,56z"/>
<path style="fill:#FFDC40;" d="M407,206c-24.813,0-45-20.187-45-45s20.187-45,45-45s45,20.187,45,45S431.813,206,407,206z"/>
<path style="fill:#FF6849;" d="M347,206c-24.813,0-45-20.187-45-45s20.187-45,45-45s45,20.187,45,45S371.813,206,347,206z"/>
<path style="fill:#FFEA84;" d="M170,206H60v-90h110V206z"/>
<g>
	<rect x="60" y="266" style="fill:#FFFFFF;" width="242" height="30"/>
	<rect x="60" y="326" style="fill:#FFFFFF;" width="196" height="30"/>
</g>
<path style="fill:#FFDC40;" d="M422,376h-90v-45c0-24.813,20.187-45,45-45s45,20.187,45,45V376z M362,346h30v-15
	c0-8.271-6.729-15-15-15s-15,6.729-15,15V346z"/>
<path style="fill:#FFAB15;" d="M377,286v30c8.271,0,15,6.729,15,15v15h-15v30h45v-45C422,306.187,401.813,286,377,286z"/>
<path style="fill:#FFEA84;" d="M452,456H302V346h150V456z"/>
<path style="fill:#FFDC40;" d="M452,456h-75V346h75V456z"/>
<rect x="256" y="266" style="fill:#F2F2F4;" width="46" height="30"/>
<g>
</g>
<g>
</g>
<g>
</g>
<g>
</g>
<g>
</g>
<g>
</g>
<g>
</g>
<g>
</g>
<g>
</g>
<g>
</g>
<g>
</g>
<g>
</g>
<g>
</g>
<g>
</g>
<g>
</g>
</svg>
