<svg height="512" viewBox="0 0 64 64" width="512" xmlns="http://www.w3.org/2000/svg"><g id="flat"><path d="m8 33 22-24 22 24z" fill="#d3843d"/><path d="m9 33h42v28h-42z" fill="#efeedc"/><path d="m17 11h-8v17l8-8.3z" fill="#ad6327"/><path d="m7 5h12v6h-12z" fill="#ffd782"/><path d="m55 31-24.939-26-25.061 26 3 3 22-23 22 23z" fill="#b11e48"/><path d="m10 14h4v2h-4z" fill="#f9bb4b"/><path d="m10 18h4v2h-4z" fill="#f9bb4b"/><path d="m15 45h10v16h-10z" fill="#66342e"/><path d="m20 52h2v2h-2z" fill="#f4f4e6"/><path d="m31 39h6v10h-6z" fill="#50b4f8"/><path d="m37 39h6v10h-6z" fill="#2d75bb"/><path d="m57 7a2 2 0 0 0 -2 2v-2a4 4 0 0 0 -8 0v2a2 2 0 0 0 -4 0v4h16v-4a2 2 0 0 0 -2-2z" fill="#50b4f8"/><path d="m25 53h26v8h-26z" fill="#ad6327"/><path d="m9 53h6v8h-6z" fill="#ad6327"/><path d="m25 53h8v4h-8z" fill="#d3843d"/><path d="m43 53h8v4h-8z" fill="#ffd782"/><path d="m33 53h10v4h-10z" fill="#ad6327"/><path d="m30 57h8v4h-8z" fill="#ffd782"/><path d="m38 57h8v4h-8z" fill="#d3843d"/><path d="m25 57h5v4h-5z" fill="#ad6327"/><path d="m46 57h5v4h-5z" fill="#ad6327"/><path d="m9 53h6v4h-6z" fill="#d3843d"/><path d="m15 39h10v6h-10z" fill="#2d75bb"/></g></svg>